# Blender v2.69 (sub 0) OBJ File: 'untitled.blend'
# www.blender.org
mtllib tower.mtl
o Cube_Cube.002
v -5.863097 1.562618 -3.915323
v -5.863097 1.562618 -5.922823
v -3.805421 1.562618 -5.922823
v -3.805421 1.562618 -3.915323
v -5.863097 3.072566 -3.915323
v -5.863097 3.072566 -5.922823
v -3.805421 3.072566 -5.922823
v -3.805421 3.072566 -3.915323
vn -1.000000 0.000000 0.000000
vn 0.000000 0.000000 -1.000000
vn 1.000000 0.000000 0.000000
vn 0.000000 0.000000 1.000000
vn 0.000000 -1.000000 0.000000
vn 0.000000 1.000000 0.000000
usemtl None
s off
f 5//1 6//1 2//1 1//1
f 6//2 7//2 3//2 2//2
f 7//3 8//3 4//3 3//3
f 8//4 5//4 1//4 4//4
f 1//5 2//5 3//5 4//5
f 8//6 7//6 6//6 5//6
o Cube.008_Cube.009
v 3.984548 1.495604 0.934970
v 3.984548 1.495604 -1.072530
v 6.042224 1.495604 -1.072530
v 6.042224 1.495604 0.934970
v 3.984548 3.005552 0.934970
v 3.984548 3.005552 -1.072530
v 6.042224 3.005552 -1.072530
v 6.042224 3.005552 0.934970
vn -1.000000 0.000000 0.000000
vn 0.000000 0.000000 -1.000000
vn 1.000000 0.000000 0.000000
vn 0.000000 0.000000 1.000000
vn 0.000000 -1.000000 0.000000
vn 0.000000 1.000000 0.000000
usemtl None
s off
f 13//7 14//7 10//7 9//7
f 14//8 15//8 11//8 10//8
f 15//9 16//9 12//9 11//9
f 16//10 13//10 9//10 12//10
f 9//11 10//11 11//11 12//11
f 16//12 15//12 14//12 13//12
o Cube.007_Cube.008
v -5.887734 1.403828 1.019857
v -5.887734 1.403828 -0.987642
v -3.830058 1.403828 -0.987642
v -3.830058 1.403828 1.019857
v -5.887734 2.913775 1.019857
v -5.887734 2.913775 -0.987642
v -3.830058 2.913775 -0.987642
v -3.830058 2.913775 1.019857
vn -1.000000 0.000000 0.000000
vn 0.000000 0.000000 -1.000000
vn 1.000000 0.000000 0.000000
vn 0.000000 0.000000 1.000000
vn 0.000000 -1.000000 0.000000
vn 0.000000 1.000000 0.000000
usemtl None
s off
f 21//13 22//13 18//13 17//13
f 22//14 23//14 19//14 18//14
f 23//15 24//15 20//15 19//15
f 24//16 21//16 17//16 20//16
f 17//17 18//17 19//17 20//17
f 24//18 23//18 22//18 21//18
o Cube.006_Cube.007
v -0.877293 1.496565 -3.819066
v -0.877293 1.496565 -5.826566
v 1.180384 1.496565 -5.826566
v 1.180384 1.496565 -3.819066
v -0.877293 3.006512 -3.819066
v -0.877293 3.006512 -5.826566
v 1.180384 3.006512 -5.826566
v 1.180384 3.006512 -3.819066
vn -1.000000 0.000000 0.000000
vn 0.000000 0.000000 -1.000000
vn 1.000000 0.000000 0.000000
vn 0.000000 0.000000 1.000000
vn 0.000000 -1.000000 0.000000
vn 0.000000 1.000000 0.000000
usemtl None
s off
f 29//19 30//19 26//19 25//19
f 30//20 31//20 27//20 26//20
f 31//21 32//21 28//21 27//21
f 32//22 29//22 25//22 28//22
f 25//23 26//23 27//23 28//23
f 32//24 31//24 30//24 29//24
o Cube.005_Cube.006
v -0.973104 1.450478 5.994114
v -0.973104 1.450478 3.986614
v 1.084573 1.450478 3.986614
v 1.084573 1.450478 5.994114
v -0.973104 2.960426 5.994114
v -0.973104 2.960426 3.986614
v 1.084573 2.960426 3.986614
v 1.084573 2.960426 5.994114
vn -1.000000 0.000000 0.000000
vn 0.000000 0.000000 -1.000000
vn 1.000000 0.000000 0.000000
vn 0.000000 0.000000 1.000000
vn 0.000000 -1.000000 0.000000
vn 0.000000 1.000000 0.000000
usemtl None
s off
f 37//25 38//25 34//25 33//25
f 38//26 39//26 35//26 34//26
f 39//27 40//27 36//27 35//27
f 40//28 37//28 33//28 36//28
f 33//29 34//29 35//29 36//29
f 40//30 39//30 38//30 37//30
o Cube.004_Cube.005
v 3.878508 1.372221 5.847247
v 3.878508 1.372221 3.839747
v 5.936184 1.372221 3.839747
v 5.936184 1.372221 5.847247
v 3.878508 2.882169 5.847247
v 3.878508 2.882169 3.839747
v 5.936184 2.882169 3.839747
v 5.936184 2.882169 5.847247
vn -1.000000 0.000000 0.000000
vn 0.000000 0.000000 -1.000000
vn 1.000000 0.000000 0.000000
vn 0.000000 0.000000 1.000000
vn 0.000000 -1.000000 0.000000
vn 0.000000 1.000000 0.000000
usemtl None
s off
f 45//31 46//31 42//31 41//31
f 46//32 47//32 43//32 42//32
f 47//33 48//33 44//33 43//33
f 48//34 45//34 41//34 44//34
f 41//35 42//35 43//35 44//35
f 48//36 47//36 46//36 45//36
o Cube.003_Cube.004
v 3.892801 1.549586 -3.874608
v 3.892801 1.549586 -5.882108
v 5.950477 1.549586 -5.882108
v 5.950477 1.549586 -3.874608
v 3.892801 3.059533 -3.874608
v 3.892801 3.059533 -5.882108
v 5.950477 3.059533 -5.882108
v 5.950477 3.059533 -3.874608
vn -1.000000 0.000000 0.000000
vn 0.000000 0.000000 -1.000000
vn 1.000000 0.000000 0.000000
vn 0.000000 0.000000 1.000000
vn 0.000000 -1.000000 0.000000
vn 0.000000 1.000000 0.000000
usemtl None
s off
f 53//37 54//37 50//37 49//37
f 54//38 55//38 51//38 50//38
f 55//39 56//39 52//39 51//39
f 56//40 53//40 49//40 52//40
f 49//41 50//41 51//41 52//41
f 56//42 55//42 54//42 53//42
o Cube.002_Cube.003
v -5.712412 1.374192 5.956176
v -5.712412 1.374192 3.948676
v -3.654736 1.374192 3.948676
v -3.654736 1.374192 5.956176
v -5.712412 2.884140 5.956176
v -5.712412 2.884140 3.948676
v -3.654736 2.884140 3.948676
v -3.654736 2.884140 5.956176
vn -1.000000 0.000000 0.000000
vn 0.000000 0.000000 -1.000000
vn 1.000000 0.000000 0.000000
vn 0.000000 0.000000 1.000000
vn 0.000000 -1.000000 0.000000
vn 0.000000 1.000000 0.000000
usemtl None
s off
f 61//43 62//43 58//43 57//43
f 62//44 63//44 59//44 58//44
f 63//45 64//45 60//45 59//45
f 64//46 61//46 57//46 60//46
f 57//47 58//47 59//47 60//47
f 64//48 63//48 62//48 61//48
o Cube.001
v -5.308050 -6.883345 5.221118
v -5.308050 -6.883345 -5.110687
v 5.281999 -6.883345 -5.110687
v 5.281999 -6.883345 5.221118
v -5.308050 0.887757 5.221118
v -5.308050 0.887757 -5.110687
v 5.281999 0.887757 -5.110687
v 5.281999 0.887757 5.221118
v -5.308050 0.887757 5.221118
v -5.308050 0.887757 -5.110687
v 5.281999 0.887757 -5.110687
v 5.281999 0.887757 5.221118
v -6.167546 1.514575 6.059655
v -6.167546 1.514575 -5.949224
v 6.141495 1.514575 -5.949224
v 6.141495 1.514575 6.059655
vn -1.000000 0.000000 0.000000
vn 0.000000 0.000000 -1.000000
vn 1.000000 0.000000 0.000000
vn 0.000000 0.000000 1.000000
vn 0.000000 -1.000000 0.000000
vn 0.000000 -0.800954 0.598725
vn 0.000000 1.000000 0.000000
vn 0.589235 -0.807961 0.000000
vn 0.000000 -0.800954 -0.598725
vn -0.589235 -0.807962 0.000000
usemtl None
s off
f 69//49 70//49 66//49 65//49
f 70//50 71//50 67//50 66//50
f 71//51 72//51 68//51 67//51
f 72//52 69//52 65//52 68//52
f 65//53 66//53 67//53 68//53
f 69//52 72//52 76//52 73//52
f 73//54 76//54 80//54 77//54
f 72//52 71//52 75//52 76//52
f 71//52 70//52 74//52 75//52
f 70//52 69//52 73//52 74//52
f 80//55 79//55 78//55 77//55
f 76//56 75//56 79//56 80//56
f 75//57 74//57 78//57 79//57
f 74//58 73//58 77//58 78//58
